<svg width="675" height="649" viewBox="0 0 675 649" fill="none" xmlns="http://www.w3.org/2000/svg">
<rect x="98" y="109" width="527" height="400" rx="25" fill="#F4F5F6"/>
<g filter="url(#filter0_d_132_8)">
<rect x="425" y="50" width="200" height="200" rx="20" fill="white"/>
</g>
<rect x="50" y="159" width="525" height="300" rx="20" fill="white"/>
<rect x="457" y="337" width="80" height="12" rx="6" fill="#E7ECF2"/>
<rect x="457" y="363" width="131" height="12" rx="6" fill="#E7ECF2"/>
<rect x="382" y="334" width="60" height="60" rx="30" fill="#EAF0FB"/>
<rect x="397" y="349" width="30" height="30" rx="15" fill="#D9E0ED"/>
<rect x="175" y="337" width="80" height="12" rx="6" fill="#E7ECF2"/>
<rect x="175" y="363" width="131" height="12" rx="6" fill="#E7ECF2"/>
<rect x="100" y="334" width="60" height="60" rx="30" fill="#EAF0FB"/>
<rect x="115" y="349" width="30" height="30" rx="15" fill="#D9E0ED"/>
<rect x="457" y="212" width="80" height="12" rx="6" fill="#E7ECF2"/>
<rect x="457" y="238" width="131" height="12" rx="6" fill="#E7ECF2"/>
<rect x="382" y="209" width="60" height="60" rx="30" fill="#EAF0FB"/>
<rect x="397" y="224" width="30" height="30" rx="15" fill="#D9E0ED"/>
<path d="M560.744 86.7998C568.905 91.6324 576.034 98.0251 581.725 105.613C587.415 113.201 591.555 121.835 593.909 131.023C596.262 140.211 596.783 149.772 595.441 159.161C594.1 168.55 590.922 177.583 586.089 185.744C581.257 193.905 574.864 201.034 567.276 206.725C559.688 212.415 551.054 216.555 541.866 218.909C532.678 221.262 523.117 221.783 513.728 220.441C504.339 219.1 495.306 215.922 487.145 211.089L489.482 207.142C497.125 211.668 505.584 214.644 514.377 215.9C523.169 217.157 532.124 216.669 540.728 214.465C549.332 212.261 557.418 208.384 564.524 203.055C571.63 197.726 577.617 191.05 582.142 183.407C586.668 175.764 589.644 167.305 590.9 158.512C592.157 149.72 591.669 140.765 589.465 132.161C587.261 123.557 583.384 115.471 578.055 108.365C572.726 101.259 566.05 95.2724 558.407 90.7467L560.744 86.7998Z" fill="#E0E0E0"/>
<path d="M487.532 211.396C479.356 206.589 472.206 200.219 466.492 192.649C460.778 185.079 456.611 176.458 454.228 167.278C451.846 158.097 451.295 148.537 452.607 139.144C453.919 129.751 457.069 120.708 461.875 112.532C466.682 104.356 473.053 97.2065 480.622 91.4922C488.192 85.778 496.814 81.6107 505.994 79.2283C515.174 76.8458 524.734 76.295 534.127 77.6071C543.521 78.9192 552.564 82.0686 560.74 86.8755L558.415 90.8298C550.758 86.3282 542.29 83.3788 533.493 82.15C524.696 80.9213 515.744 81.4372 507.146 83.6683C498.549 85.8994 490.475 89.802 483.386 95.1533C476.297 100.505 470.331 107.2 465.83 114.857C461.328 122.514 458.379 130.982 457.15 139.779C455.921 148.575 456.437 157.528 458.668 166.125C460.899 174.723 464.802 182.796 470.153 189.885C475.505 196.975 482.2 202.94 489.857 207.442L487.532 211.396Z" fill="#E0E0E0"/>
<path d="M525.232 213.351C542.052 213.012 558.046 205.952 569.698 193.724C581.349 181.497 587.702 165.104 587.36 148.152C587.017 131.2 580.008 115.076 567.872 103.329C555.737 91.5824 539.471 85.1738 522.651 85.5134L523.029 104.249C534.919 104.009 546.417 108.539 554.996 116.843C563.574 125.147 568.529 136.544 568.771 148.527C569.013 160.511 564.522 172.099 556.286 180.742C548.05 189.385 536.743 194.376 524.854 194.616L525.232 213.351Z" fill="#F9C623"/>
<path d="M502.27 148.9H498.012L498.647 141.762H507.133V144.301H501.108L500.854 146.723H503.129C504.646 146.723 505.873 147.169 506.811 148.061C507.755 148.952 508.227 150.105 508.227 151.518C508.227 152.976 507.703 154.171 506.654 155.102C505.613 156.033 504.285 156.498 502.67 156.498C501.068 156.498 499.747 156.013 498.705 155.043C497.67 154.073 497.104 152.826 497.006 151.303L499.955 150.863C500.027 151.723 500.304 152.429 500.785 152.982C501.274 153.529 501.882 153.803 502.611 153.803C503.315 153.803 503.897 153.578 504.359 153.129C504.822 152.673 505.053 152.104 505.053 151.42C505.053 150.678 504.799 150.072 504.291 149.604C503.79 149.135 503.116 148.9 502.27 148.9ZM516.889 156.498C515.632 156.498 514.509 156.173 513.52 155.521C512.537 154.87 511.772 153.965 511.225 152.807C510.684 151.648 510.414 150.339 510.414 148.881C510.414 147.423 510.684 146.114 511.225 144.955C511.772 143.796 512.537 142.891 513.52 142.24C514.509 141.589 515.632 141.264 516.889 141.264C518.152 141.264 519.278 141.589 520.268 142.24C521.257 142.891 522.026 143.796 522.572 144.955C523.119 146.114 523.393 147.423 523.393 148.881C523.393 150.339 523.119 151.648 522.572 152.807C522.026 153.965 521.257 154.87 520.268 155.521C519.278 156.173 518.152 156.498 516.889 156.498ZM519.145 145.473C518.572 144.587 517.82 144.145 516.889 144.145C515.958 144.145 515.206 144.587 514.633 145.473C514.06 146.358 513.774 147.494 513.774 148.881C513.774 150.268 514.06 151.404 514.633 152.289C515.206 153.174 515.958 153.617 516.889 153.617C517.82 153.617 518.572 153.174 519.145 152.289C519.724 151.404 520.014 150.268 520.014 148.881C520.014 147.494 519.724 146.358 519.145 145.473ZM536.469 151.996C536.469 150.746 536.866 149.721 537.66 148.92C538.455 148.119 539.477 147.719 540.727 147.719C541.983 147.719 543.009 148.119 543.803 148.92C544.604 149.721 545.004 150.746 545.004 151.996C545.004 153.259 544.604 154.291 543.803 155.092C543.009 155.886 541.983 156.283 540.727 156.283C539.477 156.283 538.455 155.883 537.66 155.082C536.866 154.281 536.469 153.253 536.469 151.996ZM542.504 151.996C542.504 151.475 542.338 151.049 542.006 150.717C541.68 150.385 541.254 150.219 540.727 150.219C540.212 150.219 539.789 150.385 539.457 150.717C539.132 151.049 538.969 151.475 538.969 151.996C538.969 152.523 539.132 152.95 539.457 153.275C539.783 153.601 540.206 153.764 540.727 153.764C541.261 153.764 541.69 153.604 542.016 153.285C542.341 152.96 542.504 152.53 542.504 151.996ZM525.365 145.16C525.365 143.904 525.766 142.878 526.567 142.084C527.367 141.283 528.393 140.883 529.643 140.883C530.906 140.883 531.934 141.283 532.729 142.084C533.529 142.878 533.93 143.904 533.93 145.16C533.93 146.41 533.529 147.436 532.729 148.236C531.928 149.037 530.899 149.438 529.643 149.438C528.393 149.438 527.367 149.037 526.567 148.236C525.766 147.436 525.365 146.41 525.365 145.16ZM531.43 145.16C531.43 144.626 531.264 144.197 530.932 143.871C530.606 143.546 530.177 143.383 529.643 143.383C529.122 143.383 528.695 143.549 528.363 143.881C528.031 144.206 527.865 144.633 527.865 145.16C527.865 145.681 528.031 146.107 528.363 146.439C528.695 146.771 529.122 146.938 529.643 146.938C530.17 146.938 530.6 146.771 530.932 146.439C531.264 146.107 531.43 145.681 531.43 145.16ZM538.744 141.156H541.586L531.645 156H528.783L538.744 141.156Z" fill="#252525"/>
<g filter="url(#filter1_d_132_8)">
<rect x="50" y="399" width="300" height="200" rx="20" fill="white"/>
</g>
<path d="M89.0526 553.382L115.51 529.07C119.201 525.678 124.031 523.796 129.043 523.796H156.779C159.646 523.796 162.383 524.995 164.328 527.102V527.102C168.338 531.446 175.177 531.518 179.278 527.26L188.58 517.599C192.263 513.775 197.344 511.614 202.653 511.614H210.215C216.828 511.614 222.189 516.975 222.189 523.589V523.589C222.189 527.532 224.131 531.222 227.38 533.456L230.993 535.94C234.327 538.233 238.278 539.46 242.324 539.46H243.29C249.712 539.46 255.743 536.376 259.503 531.169L264.828 523.796L272.297 515.082C274.184 512.881 276.939 511.614 279.838 511.614V511.614C281.958 511.614 284.022 512.292 285.729 513.55L296.01 521.125C298.365 522.86 301.213 523.796 304.138 523.796V523.796C307.409 523.796 310.572 522.626 313.056 520.498L314.308 519.424C314.967 518.859 315.585 518.247 316.157 517.594L321.389 511.614" stroke="#D9BA83" stroke-width="3.5"/>
<path d="M156.779 526.407H129.043C124.031 526.407 119.201 528.289 115.51 531.68L105.151 541.2L97.1017 548.596C94.243 551.223 96.1016 555.993 99.9841 555.993H309.982C316.282 555.993 321.389 550.886 321.389 544.585V523.232C321.389 520.107 317.516 518.651 315.458 521.003C315.352 521.125 315.237 521.239 315.114 521.344L313.056 523.108C310.572 525.237 307.409 526.407 304.138 526.407C301.213 526.407 298.365 525.471 296.01 523.736L285.729 516.161C284.022 514.903 281.958 514.225 279.838 514.225C276.939 514.225 274.184 515.491 272.297 517.693L264.828 526.407L259.503 533.78C255.743 538.986 249.712 542.07 243.29 542.07H242.324C238.278 542.07 234.327 540.843 230.993 538.551L227.38 536.067C224.131 533.833 222.189 530.142 222.189 526.199C222.189 519.586 216.828 514.225 210.215 514.225H202.653C197.344 514.225 192.263 516.385 188.58 520.21L179.278 529.87C175.177 534.128 168.338 534.056 164.328 529.712C162.383 527.605 159.646 526.407 156.779 526.407Z" fill="url(#paint0_linear_132_8)"/>
<path d="M76.8702 506.451L82.6848 509.692C96.6805 517.494 103.678 521.395 110.213 520.554C113.406 520.143 116.452 518.968 119.093 517.128C124.499 513.362 127.064 505.773 132.194 490.593V490.593C133.809 485.816 134.616 483.428 135.948 481.355C136.615 480.316 137.377 479.341 138.225 478.442C139.916 476.65 142.039 475.291 146.285 472.572L151.009 469.548C154.136 467.546 155.7 466.545 157.314 465.872C161.416 464.162 165.971 463.867 170.26 465.034C171.948 465.493 173.627 466.284 176.986 467.866L184.766 471.53C187.078 472.619 188.786 474.681 189.426 477.156V477.156C191.593 485.539 203.394 485.822 205.959 477.551L206.554 475.632C207.038 474.072 207.93 472.669 209.138 471.569L213.789 467.335C214.43 466.751 214.751 466.459 215.074 466.189C218.451 463.365 222.666 461.733 227.064 461.548C227.484 461.531 227.918 461.531 228.786 461.531V461.531C230.217 461.531 230.932 461.531 231.589 461.574C238.562 462.034 244.789 466.1 248.015 472.298C248.319 472.883 248.607 473.538 249.182 474.847L251.054 479.108L256.717 491.998C260.241 500.02 269.545 503.735 277.625 500.347V500.347C278.784 499.861 279.882 499.24 280.896 498.498L282.791 497.112C286.576 494.342 288.469 492.958 289.972 491.206C290.475 490.621 290.944 490.006 291.375 489.367C292.666 487.453 293.501 485.262 295.17 480.878L299.294 470.048C300.908 465.807 301.716 463.687 302.963 461.815C304.211 459.943 305.857 458.381 309.15 455.259L323.13 442" stroke="#67BD8C" stroke-width="3.5"/>
<path d="M101.645 518.437L80.552 507.147C78.4918 506.044 76 507.537 76 509.874C76 523.147 76 529.784 78.7476 534.47C81.0753 538.439 84.7006 541.484 89.0121 543.092C94.1014 544.99 100.639 543.845 113.713 541.554L306.849 507.716C307.418 507.616 307.702 507.566 307.951 507.516C317.099 505.672 323.756 497.747 323.994 488.419C324 488.164 324 487.876 324 487.299V446.659C324 444.834 321.856 443.852 320.475 445.046L316.949 448.091L309.898 454.182C307.243 456.476 305.915 457.623 304.818 458.965C304.19 459.733 303.621 460.546 303.113 461.399C302.227 462.888 301.603 464.528 300.354 467.807L296.04 479.138L296.04 479.138C294.371 483.521 293.537 485.713 292.246 487.626C291.814 488.266 291.345 488.88 290.843 489.466C289.339 491.217 287.447 492.602 283.661 495.372L281.767 496.758C280.752 497.5 279.654 498.12 278.495 498.607C270.415 501.994 261.111 498.279 257.587 490.258L251.924 477.368L250.052 473.107C249.477 471.797 249.189 471.143 248.885 470.558C245.659 464.359 239.432 460.293 232.459 459.834C231.802 459.79 231.087 459.79 229.656 459.79C228.789 459.79 228.355 459.79 227.934 459.808C223.536 459.993 219.321 461.624 215.944 464.449C215.622 464.718 215.301 465.01 214.659 465.594L214.659 465.595L210.009 469.829C208.801 470.929 207.908 472.331 207.424 473.892L206.829 475.811C204.265 484.081 192.463 483.799 190.296 475.415C189.657 472.94 187.949 470.879 185.636 469.789L177.857 466.126C174.497 464.544 172.818 463.753 171.13 463.294C166.841 462.127 162.287 462.422 158.185 464.132C156.57 464.805 155.006 465.806 151.879 467.808L147.293 470.744C142.91 473.55 140.719 474.952 138.988 476.817C138.219 477.645 137.521 478.537 136.903 479.482C135.511 481.612 134.678 484.077 133.012 489.007L126.372 508.655C122.924 518.857 111.139 523.52 101.645 518.437Z" fill="url(#paint1_linear_132_8)"/>
<circle cx="230.5" cy="461.5" r="3.5" fill="#FDFDFD" stroke="black" stroke-width="2"/>
<circle cx="241.5" cy="539.5" r="3.5" fill="white" stroke="black" stroke-width="2"/>
<rect x="175" y="212" width="80" height="12" rx="6" fill="#E7ECF2"/>
<rect x="175" y="238" width="131" height="12" rx="6" fill="#E7ECF2"/>
<rect x="100" y="209" width="60" height="60" rx="30" fill="#EAF0FB"/>
<rect x="115" y="224" width="30" height="30" rx="15" fill="#D9E0ED"/>
<defs>
<filter id="filter0_d_132_8" x="375" y="0" width="300" height="300" filterUnits="userSpaceOnUse" color-interpolation-filters="sRGB">
<feFlood flood-opacity="0" result="BackgroundImageFix"/>
<feColorMatrix in="SourceAlpha" type="matrix" values="0 0 0 0 0 0 0 0 0 0 0 0 0 0 0 0 0 0 127 0" result="hardAlpha"/>
<feOffset/>
<feGaussianBlur stdDeviation="25"/>
<feComposite in2="hardAlpha" operator="out"/>
<feColorMatrix type="matrix" values="0 0 0 0 0.95 0 0 0 0 0.95 0 0 0 0 0.95 0 0 0 1 0"/>
<feBlend mode="normal" in2="BackgroundImageFix" result="effect1_dropShadow_132_8"/>
<feBlend mode="normal" in="SourceGraphic" in2="effect1_dropShadow_132_8" result="shape"/>
</filter>
<filter id="filter1_d_132_8" x="0" y="349" width="400" height="300" filterUnits="userSpaceOnUse" color-interpolation-filters="sRGB">
<feFlood flood-opacity="0" result="BackgroundImageFix"/>
<feColorMatrix in="SourceAlpha" type="matrix" values="0 0 0 0 0 0 0 0 0 0 0 0 0 0 0 0 0 0 127 0" result="hardAlpha"/>
<feOffset/>
<feGaussianBlur stdDeviation="25"/>
<feComposite in2="hardAlpha" operator="out"/>
<feColorMatrix type="matrix" values="0 0 0 0 0.95 0 0 0 0 0.95 0 0 0 0 0.95 0 0 0 1 0"/>
<feBlend mode="normal" in2="BackgroundImageFix" result="effect1_dropShadow_132_8"/>
<feBlend mode="normal" in="SourceGraphic" in2="effect1_dropShadow_132_8" result="shape"/>
</filter>
<linearGradient id="paint0_linear_132_8" x1="205.221" y1="514.225" x2="205.221" y2="555.993" gradientUnits="userSpaceOnUse">
<stop stop-color="#D9BA83" stop-opacity="0.24"/>
<stop offset="1" stop-color="#D9BA83" stop-opacity="0"/>
</linearGradient>
<linearGradient id="paint1_linear_132_8" x1="200.87" y1="440.26" x2="200.87" y2="528.147" gradientUnits="userSpaceOnUse">
<stop offset="0.0001" stop-color="#67BD8C" stop-opacity="0.0213964"/>
<stop offset="0.0002" stop-color="#67BD8C" stop-opacity="0.0416667"/>
<stop offset="0.0003" stop-color="#67BD8C" stop-opacity="0.25"/>
<stop offset="0.0004" stop-color="#BEF5D6" stop-opacity="0.25"/>
<stop offset="1" stop-color="#80D0A3" stop-opacity="0.03"/>
</linearGradient>
</defs>
</svg>
