<svg width="625" height="400" viewBox="0 0 625 400" fill="none" xmlns="http://www.w3.org/2000/svg">
<rect width="527" height="400" rx="25" fill="#F4F5F6"/>
<g filter="url(#filter0_d_132_5)">
<rect x="50" y="50" width="525" height="300" rx="20" fill="white"/>
</g>
<rect x="80.5" y="185.5" width="214" height="39" rx="7.5" fill="white" stroke="#AAAAAA"/>
<rect x="95" y="199" width="113" height="12" rx="6" fill="#F4F4F4"/>
<rect x="80.5" y="255.5" width="214" height="39" rx="7.5" fill="white" stroke="#AAAAAA"/>
<rect x="95" y="269" width="113" height="12" rx="6" fill="#F4F4F4"/>
<rect x="325.5" y="185.5" width="214" height="39" rx="7.5" fill="white" stroke="#AAAAAA"/>
<rect x="340" y="199" width="113" height="12" rx="6" fill="#F4F4F4"/>
<rect x="325.5" y="255.5" width="214" height="39" rx="7.5" fill="white" stroke="#AAAAAA"/>
<rect x="340" y="269" width="113" height="12" rx="6" fill="#F4F4F4"/>
<path d="M133 117H486.5" stroke="#E0E0E0" stroke-linecap="round" stroke-dasharray="8 8"/>
<path d="M133 117H213" stroke="#F9C623" stroke-linecap="round"/>
<rect x="80" y="145" width="80" height="10" rx="5" fill="#F9C623"/>
<circle cx="120" cy="117" r="13" fill="#F9C623"/>
<circle cx="120" cy="117" r="7" fill="#DBAD1A"/>
<rect x="175" y="145" width="80" height="10" rx="5" fill="#F4F4F4"/>
<circle cx="215" cy="117" r="13" fill="#F4F4F4"/>
<circle cx="215" cy="117" r="7" fill="#E0E0E0"/>
<rect x="270" y="145" width="80" height="10" rx="5" fill="#F4F4F4"/>
<circle cx="310" cy="117" r="13" fill="#F4F4F4"/>
<circle cx="310" cy="117" r="7" fill="#E0E0E0"/>
<rect x="365" y="145" width="80" height="10" rx="5" fill="#F4F4F4"/>
<circle cx="405" cy="117" r="13" fill="#F4F4F4"/>
<circle cx="405" cy="117" r="7" fill="#E0E0E0"/>
<rect x="460" y="145" width="80" height="10" rx="5" fill="#F4F4F4"/>
<circle cx="500" cy="117" r="13" fill="#F4F4F4"/>
<circle cx="500" cy="117" r="7" fill="#E0E0E0"/>
<defs>
<filter id="filter0_d_132_5" x="0" y="0" width="625" height="400" filterUnits="userSpaceOnUse" color-interpolation-filters="sRGB">
<feFlood flood-opacity="0" result="BackgroundImageFix"/>
<feColorMatrix in="SourceAlpha" type="matrix" values="0 0 0 0 0 0 0 0 0 0 0 0 0 0 0 0 0 0 127 0" result="hardAlpha"/>
<feOffset/>
<feGaussianBlur stdDeviation="25"/>
<feComposite in2="hardAlpha" operator="out"/>
<feColorMatrix type="matrix" values="0 0 0 0 0.95 0 0 0 0 0.95 0 0 0 0 0.95 0 0 0 1 0"/>
<feBlend mode="normal" in2="BackgroundImageFix" result="effect1_dropShadow_132_5"/>
<feBlend mode="normal" in="SourceGraphic" in2="effect1_dropShadow_132_5" result="shape"/>
</filter>
</defs>
</svg>
