<svg width="623" height="599" viewBox="0 0 623 599" fill="none" xmlns="http://www.w3.org/2000/svg">
<rect x="50" y="109" width="525" height="300" rx="20" fill="white"/>
<rect x="457" y="287" width="80" height="12" rx="6" fill="#E7ECF2"/>
<rect x="457" y="313" width="131" height="12" rx="6" fill="#E7ECF2"/>
<rect x="382" y="284" width="60" height="60" rx="30" fill="#EAF0FB"/>
<rect x="397" y="299" width="30" height="30" rx="15" fill="#D9E0ED"/>
<rect x="175" y="287" width="80" height="12" rx="6" fill="#E7ECF2"/>
<rect x="175" y="313" width="131" height="12" rx="6" fill="#E7ECF2"/>
<rect x="100" y="284" width="60" height="60" rx="30" fill="#EAF0FB"/>
<rect x="115" y="299" width="30" height="30" rx="15" fill="#D9E0ED"/>
<rect x="457" y="162" width="80" height="12" rx="6" fill="#E7ECF2"/>
<rect x="457" y="188" width="131" height="12" rx="6" fill="#E7ECF2"/>
<rect x="382" y="159" width="60" height="60" rx="30" fill="#EAF0FB"/>
<rect x="397" y="174" width="30" height="30" rx="15" fill="#D9E0ED"/>
<path d="M560.744 36.7998C568.905 41.6324 576.034 48.0251 581.725 55.6129C587.415 63.2007 591.555 71.8351 593.909 81.0229C596.262 90.2108 596.783 99.7722 595.441 109.161C594.1 118.55 590.922 127.583 586.089 135.744C581.257 143.905 574.864 151.034 567.276 156.725C559.688 162.415 551.054 166.555 541.866 168.909C532.678 171.262 523.117 171.783 513.728 170.441C504.339 169.1 495.306 165.922 487.145 161.089L489.482 157.142C497.125 161.668 505.584 164.644 514.377 165.9C523.169 167.157 532.124 166.669 540.728 164.465C549.332 162.261 557.418 158.384 564.524 153.055C571.63 147.726 577.617 141.05 582.142 133.407C586.668 125.764 589.644 117.305 590.9 108.512C592.157 99.7196 591.669 90.7655 589.465 82.1612C587.261 73.5569 583.384 65.4709 578.055 58.365C572.726 51.2591 566.05 45.2724 558.407 40.7467L560.744 36.7998Z" fill="#E0E0E0"/>
<path d="M487.532 161.396C479.356 156.589 472.206 150.219 466.492 142.649C460.778 135.079 456.611 126.458 454.228 117.278C451.846 108.097 451.295 98.5375 452.607 89.1442C453.919 79.7509 457.069 70.708 461.875 62.5319C466.682 54.3558 473.053 47.2065 480.622 41.4922C488.192 35.778 496.814 31.6107 505.994 29.2283C515.174 26.8458 524.734 26.295 534.127 27.6071C543.521 28.9192 552.564 32.0686 560.74 36.8755L558.415 40.8298C550.758 36.3282 542.29 33.3788 533.493 32.15C524.696 30.9213 515.744 31.4372 507.146 33.6683C498.549 35.8994 490.475 39.802 483.386 45.1533C476.297 50.5046 470.331 57.1999 465.83 64.8567C461.328 72.5136 458.379 80.9821 457.15 89.7788C455.921 98.5755 456.437 107.528 458.668 116.125C460.899 124.723 464.802 132.796 470.153 139.885C475.505 146.975 482.2 152.94 489.857 157.442L487.532 161.396Z" fill="#E0E0E0"/>
<path d="M525.232 163.351C542.052 163.012 558.046 155.952 569.698 143.724C581.349 131.497 587.702 115.104 587.36 98.1519C587.017 81.1995 580.008 65.0764 567.872 53.3294C555.737 41.5824 539.471 35.1738 522.651 35.5134L523.029 54.2489C534.919 54.0089 546.417 58.539 554.996 66.8428C563.574 75.1466 568.529 86.5438 568.771 98.5272C569.013 110.511 564.522 122.099 556.286 130.742C548.05 139.385 536.743 144.376 524.854 144.616L525.232 163.351Z" fill="#F9C623"/>
<path d="M502.27 98.9004H498.012L498.647 91.7617H507.133V94.3008H501.108L500.854 96.7227H503.129C504.646 96.7227 505.873 97.1686 506.811 98.0605C507.755 98.9525 508.227 100.105 508.227 101.518C508.227 102.976 507.703 104.171 506.654 105.102C505.613 106.033 504.285 106.498 502.67 106.498C501.068 106.498 499.747 106.013 498.705 105.043C497.67 104.073 497.104 102.826 497.006 101.303L499.955 100.863C500.027 101.723 500.304 102.429 500.785 102.982C501.274 103.529 501.882 103.803 502.611 103.803C503.315 103.803 503.897 103.578 504.359 103.129C504.822 102.673 505.053 102.104 505.053 101.42C505.053 100.678 504.799 100.072 504.291 99.6035C503.79 99.1348 503.116 98.9004 502.27 98.9004ZM516.889 106.498C515.632 106.498 514.509 106.173 513.52 105.521C512.537 104.87 511.772 103.965 511.225 102.807C510.684 101.648 510.414 100.339 510.414 98.8809C510.414 97.4225 510.684 96.1139 511.225 94.9551C511.772 93.7962 512.537 92.8913 513.52 92.2402C514.509 91.5892 515.632 91.2637 516.889 91.2637C518.152 91.2637 519.278 91.5892 520.268 92.2402C521.257 92.8913 522.026 93.7962 522.572 94.9551C523.119 96.1139 523.393 97.4225 523.393 98.8809C523.393 100.339 523.119 101.648 522.572 102.807C522.026 103.965 521.257 104.87 520.268 105.521C519.278 106.173 518.152 106.498 516.889 106.498ZM519.145 95.4727C518.572 94.5872 517.82 94.1445 516.889 94.1445C515.958 94.1445 515.206 94.5872 514.633 95.4727C514.06 96.3581 513.774 97.4941 513.774 98.8809C513.774 100.268 514.06 101.404 514.633 102.289C515.206 103.174 515.958 103.617 516.889 103.617C517.82 103.617 518.572 103.174 519.145 102.289C519.724 101.404 520.014 100.268 520.014 98.8809C520.014 97.4941 519.724 96.3581 519.145 95.4727ZM536.469 101.996C536.469 100.746 536.866 99.7207 537.66 98.9199C538.455 98.1191 539.477 97.7188 540.727 97.7188C541.983 97.7188 543.009 98.1191 543.803 98.9199C544.604 99.7207 545.004 100.746 545.004 101.996C545.004 103.259 544.604 104.291 543.803 105.092C543.009 105.886 541.983 106.283 540.727 106.283C539.477 106.283 538.455 105.883 537.66 105.082C536.866 104.281 536.469 103.253 536.469 101.996ZM542.504 101.996C542.504 101.475 542.338 101.049 542.006 100.717C541.68 100.385 541.254 100.219 540.727 100.219C540.212 100.219 539.789 100.385 539.457 100.717C539.132 101.049 538.969 101.475 538.969 101.996C538.969 102.523 539.132 102.95 539.457 103.275C539.783 103.601 540.206 103.764 540.727 103.764C541.261 103.764 541.69 103.604 542.016 103.285C542.341 102.96 542.504 102.53 542.504 101.996ZM525.365 95.1602C525.365 93.9036 525.766 92.8783 526.567 92.084C527.367 91.2832 528.393 90.8828 529.643 90.8828C530.906 90.8828 531.934 91.2832 532.729 92.084C533.529 92.8783 533.93 93.9036 533.93 95.1602C533.93 96.4102 533.529 97.4355 532.729 98.2363C531.928 99.0371 530.899 99.4375 529.643 99.4375C528.393 99.4375 527.367 99.0371 526.567 98.2363C525.766 97.4355 525.365 96.4102 525.365 95.1602ZM531.43 95.1602C531.43 94.6263 531.264 94.1966 530.932 93.8711C530.606 93.5456 530.177 93.3828 529.643 93.3828C529.122 93.3828 528.695 93.5488 528.363 93.8809C528.031 94.2064 527.865 94.6328 527.865 95.1602C527.865 95.681 528.031 96.1074 528.363 96.4395C528.695 96.7715 529.122 96.9375 529.643 96.9375C530.17 96.9375 530.6 96.7715 530.932 96.4395C531.264 96.1074 531.43 95.681 531.43 95.1602ZM538.744 91.1562H541.586L531.645 106H528.783L538.744 91.1562Z" fill="#252525"/>
<g filter="url(#filter0_d_132_6)">
<rect x="50" y="349" width="300" height="200" rx="20" fill="white"/>
</g>
<path d="M89.0526 503.382L115.51 479.07C119.201 475.678 124.031 473.796 129.043 473.796H156.779C159.646 473.796 162.383 474.995 164.328 477.102V477.102C168.338 481.446 175.177 481.518 179.278 477.26L188.58 467.599C192.263 463.775 197.344 461.614 202.653 461.614H210.215C216.828 461.614 222.189 466.975 222.189 473.589V473.589C222.189 477.532 224.131 481.222 227.38 483.456L230.993 485.94C234.327 488.233 238.278 489.46 242.324 489.46H243.29C249.712 489.46 255.743 486.376 259.503 481.169L264.828 473.796L272.297 465.082C274.184 462.881 276.939 461.614 279.838 461.614V461.614C281.958 461.614 284.022 462.292 285.729 463.55L296.01 471.125C298.365 472.86 301.213 473.796 304.138 473.796V473.796C307.409 473.796 310.572 472.626 313.056 470.498L314.308 469.424C314.967 468.859 315.585 468.247 316.157 467.594L321.389 461.614" stroke="#D9BA83" stroke-width="3.5"/>
<path d="M156.779 476.407H129.043C124.031 476.407 119.201 478.289 115.51 481.68L105.151 491.2L97.1017 498.596C94.243 501.223 96.1016 505.993 99.9841 505.993H309.982C316.282 505.993 321.389 500.886 321.389 494.585V473.232C321.389 470.107 317.516 468.651 315.458 471.003C315.352 471.125 315.237 471.239 315.114 471.344L313.056 473.108C310.572 475.237 307.409 476.407 304.138 476.407C301.213 476.407 298.365 475.471 296.01 473.736L285.729 466.161C284.022 464.903 281.958 464.225 279.838 464.225C276.939 464.225 274.184 465.491 272.297 467.693L264.828 476.407L259.503 483.78C255.743 488.986 249.712 492.07 243.29 492.07H242.324C238.278 492.07 234.327 490.843 230.993 488.551L227.38 486.067C224.131 483.833 222.189 480.142 222.189 476.199C222.189 469.586 216.828 464.225 210.215 464.225H202.653C197.344 464.225 192.263 466.385 188.58 470.21L179.278 479.87C175.177 484.128 168.338 484.056 164.328 479.712C162.383 477.605 159.646 476.407 156.779 476.407Z" fill="url(#paint0_linear_132_6)"/>
<path d="M76.8702 456.451L82.6848 459.692C96.6805 467.494 103.678 471.395 110.213 470.554C113.406 470.143 116.452 468.968 119.093 467.128C124.499 463.362 127.064 455.773 132.194 440.593V440.593C133.809 435.816 134.616 433.428 135.948 431.355C136.615 430.316 137.377 429.341 138.225 428.442C139.916 426.65 142.039 425.291 146.285 422.572L151.009 419.548C154.136 417.546 155.7 416.545 157.314 415.872C161.416 414.162 165.971 413.867 170.26 415.034C171.948 415.493 173.627 416.284 176.986 417.866L184.766 421.53C187.078 422.619 188.786 424.681 189.426 427.156V427.156C191.593 435.539 203.394 435.822 205.959 427.551L206.554 425.632C207.038 424.072 207.93 422.669 209.138 421.569L213.789 417.335C214.43 416.751 214.751 416.459 215.074 416.189C218.451 413.365 222.666 411.733 227.064 411.548C227.484 411.531 227.918 411.531 228.786 411.531V411.531C230.217 411.531 230.932 411.531 231.589 411.574C238.562 412.034 244.789 416.1 248.015 422.298C248.319 422.883 248.607 423.538 249.182 424.847L251.054 429.108L256.717 441.998C260.241 450.02 269.545 453.735 277.625 450.347V450.347C278.784 449.861 279.882 449.24 280.896 448.498L282.791 447.112C286.576 444.342 288.469 442.958 289.972 441.206C290.475 440.621 290.944 440.006 291.375 439.367C292.666 437.453 293.501 435.262 295.17 430.878L299.294 420.048C300.908 415.807 301.716 413.687 302.963 411.815C304.211 409.943 305.857 408.381 309.15 405.259L323.13 392" stroke="#67BD8C" stroke-width="3.5"/>
<path d="M101.645 468.437L80.552 457.147C78.4918 456.044 76 457.537 76 459.874C76 473.147 76 479.784 78.7476 484.47C81.0753 488.439 84.7006 491.484 89.0121 493.092C94.1014 494.99 100.639 493.845 113.713 491.554L306.849 457.716C307.418 457.616 307.702 457.566 307.951 457.516C317.099 455.672 323.756 447.747 323.994 438.419C324 438.164 324 437.876 324 437.299V396.659C324 394.834 321.856 393.852 320.475 395.046L316.949 398.091L309.898 404.182C307.243 406.476 305.915 407.623 304.818 408.965C304.19 409.733 303.621 410.546 303.113 411.399C302.227 412.888 301.603 414.528 300.354 417.807L296.04 429.138L296.04 429.138C294.371 433.521 293.537 435.713 292.246 437.626C291.814 438.266 291.345 438.88 290.843 439.466C289.339 441.217 287.447 442.602 283.661 445.372L281.767 446.758C280.752 447.5 279.654 448.12 278.495 448.607C270.415 451.994 261.111 448.279 257.587 440.258L251.924 427.368L250.052 423.107C249.477 421.797 249.189 421.143 248.885 420.558C245.659 414.359 239.432 410.293 232.459 409.834C231.802 409.79 231.087 409.79 229.656 409.79C228.789 409.79 228.355 409.79 227.934 409.808C223.536 409.993 219.321 411.624 215.944 414.449C215.622 414.718 215.301 415.01 214.659 415.594L214.659 415.595L210.009 419.829C208.801 420.929 207.908 422.331 207.424 423.892L206.829 425.811C204.265 434.081 192.463 433.799 190.296 425.415C189.657 422.94 187.949 420.879 185.636 419.789L177.857 416.126C174.497 414.544 172.818 413.753 171.13 413.294C166.841 412.127 162.287 412.422 158.185 414.132C156.57 414.805 155.006 415.806 151.879 417.808L147.293 420.744C142.91 423.55 140.719 424.952 138.988 426.817C138.219 427.645 137.521 428.537 136.903 429.482C135.511 431.612 134.678 434.077 133.012 439.007L126.372 458.655C122.924 468.857 111.139 473.52 101.645 468.437Z" fill="url(#paint1_linear_132_6)"/>
<circle cx="230.5" cy="411.5" r="3.5" fill="#FDFDFD" stroke="black" stroke-width="2"/>
<circle cx="241.5" cy="489.5" r="3.5" fill="white" stroke="black" stroke-width="2"/>
<rect x="175" y="162" width="80" height="12" rx="6" fill="#E7ECF2"/>
<rect x="175" y="188" width="131" height="12" rx="6" fill="#E7ECF2"/>
<rect x="100" y="159" width="60" height="60" rx="30" fill="#EAF0FB"/>
<rect x="115" y="174" width="30" height="30" rx="15" fill="#D9E0ED"/>
<defs>
<filter id="filter0_d_132_6" x="0" y="299" width="400" height="300" filterUnits="userSpaceOnUse" color-interpolation-filters="sRGB">
<feFlood flood-opacity="0" result="BackgroundImageFix"/>
<feColorMatrix in="SourceAlpha" type="matrix" values="0 0 0 0 0 0 0 0 0 0 0 0 0 0 0 0 0 0 127 0" result="hardAlpha"/>
<feOffset/>
<feGaussianBlur stdDeviation="25"/>
<feComposite in2="hardAlpha" operator="out"/>
<feColorMatrix type="matrix" values="0 0 0 0 0.95 0 0 0 0 0.95 0 0 0 0 0.95 0 0 0 1 0"/>
<feBlend mode="normal" in2="BackgroundImageFix" result="effect1_dropShadow_132_6"/>
<feBlend mode="normal" in="SourceGraphic" in2="effect1_dropShadow_132_6" result="shape"/>
</filter>
<linearGradient id="paint0_linear_132_6" x1="205.221" y1="464.225" x2="205.221" y2="505.993" gradientUnits="userSpaceOnUse">
<stop stop-color="#D9BA83" stop-opacity="0.24"/>
<stop offset="1" stop-color="#D9BA83" stop-opacity="0"/>
</linearGradient>
<linearGradient id="paint1_linear_132_6" x1="200.87" y1="390.26" x2="200.87" y2="478.147" gradientUnits="userSpaceOnUse">
<stop offset="0.0001" stop-color="#67BD8C" stop-opacity="0.0213964"/>
<stop offset="0.0002" stop-color="#67BD8C" stop-opacity="0.0416667"/>
<stop offset="0.0003" stop-color="#67BD8C" stop-opacity="0.25"/>
<stop offset="0.0004" stop-color="#BEF5D6" stop-opacity="0.25"/>
<stop offset="1" stop-color="#80D0A3" stop-opacity="0.03"/>
</linearGradient>
</defs>
</svg>
