<svg width="200" height="45" viewBox="0 0 200 45" fill="none" xmlns="http://www.w3.org/2000/svg">
<path fill-rule="evenodd" clip-rule="evenodd" d="M6.71159 16.5676L0.41153 1.23225H2.3332L6.71159 12.5235L11.0678 1.23225H12.9831L6.71159 16.5676ZM47.7236 15.9923V1.23225H55.5832V2.83548H49.4955V7.06802H55.5832V8.70279H49.4955V14.3576H55.5832V15.9923H47.7236ZM91.76 15.9923V0.647217L102.663 12.4444V1.23225H104.352V16.5676L93.4486 4.90022V15.9923H91.76ZM141.025 1.23225H142.818V10.4132C142.818 11.9071 143.139 13.0013 143.781 13.7C144.42 14.3987 145.428 14.7498 146.797 14.7498C148.166 14.7498 149.174 14.3987 149.813 13.7C150.456 13.0013 150.775 11.9071 150.775 10.4132V1.23225H152.579V10.4132C152.579 12.413 152.1 13.9069 151.137 14.8981C150.178 15.8893 148.732 16.3844 146.797 16.3844C144.869 16.3844 143.426 15.8893 142.467 14.8981C141.505 13.9069 141.025 12.413 141.025 10.4132V1.23225ZM189.276 15.9923V1.23225H197.136V2.83548H191.048V7.06802H197.136V8.70279H191.048V14.3576H197.136V15.9923H189.276Z" fill="#F9C623"/>
<path fill-rule="evenodd" clip-rule="evenodd" d="M5.49392 44.9399L2.40409 37.9287L1.15505 44.5596H0L2.01687 34.4177L5.49392 42.4872L8.96987 34.4177L10.9867 44.5596H9.83163L8.56942 37.9287L5.49392 44.9399ZM27.3907 36.983L25.8101 40.5741H28.9734L27.3907 36.983ZM27.3907 34.4177L31.9145 44.5596H30.6303L29.3386 41.5686H25.4547L24.1664 44.5596H22.8833L27.3907 34.4177ZM44.673 44.5596V34.4177L51.9464 42.2143V34.8045H53.0729V44.9399L45.7995 37.2289V44.5596H44.673ZM70.3246 36.983L68.744 40.5741H71.9083L70.3246 36.983ZM70.3246 34.4177L74.8482 44.5596H73.5642L72.2736 41.5686H68.3886L67.1014 44.5596H65.8172L70.3246 34.4177ZM92.8295 39.5213H96.9299V39.8494C96.9299 41.3845 96.4869 42.5968 95.5998 43.4861C94.7107 44.3755 93.5011 44.8185 91.9664 44.8185C91.4994 44.8185 91.0543 44.7709 90.632 44.6733C90.2088 44.5759 89.8195 44.4318 89.4629 44.2455C88.647 43.8067 88.0159 43.199 87.5728 42.4234C87.1299 41.6477 86.9079 40.7681 86.9079 39.7811C86.9079 38.9686 87.0391 38.2342 87.305 37.5789C87.5706 36.9233 87.9688 36.3459 88.5025 35.8498C88.952 35.4316 89.4716 35.1153 90.0656 34.9041C90.6584 34.6906 91.3135 34.5835 92.0343 34.5835C92.9891 34.5835 93.8171 34.7536 94.5192 35.0927C95.2213 35.4338 95.8023 35.9462 96.2639 36.6277L95.2717 37.4088C94.9152 36.8172 94.468 36.3753 93.9352 36.0795C93.4015 35.7838 92.7802 35.6365 92.0737 35.6365C90.9197 35.6365 89.9836 36.0188 89.265 36.7826C88.5441 37.5473 88.1855 38.5451 88.1855 39.7811C88.1855 40.9457 88.5507 41.9 89.2812 42.6465C90.0108 43.3928 90.9428 43.7655 92.0737 43.7655C93.0712 43.7655 93.9002 43.4697 94.563 42.8762C95.2257 42.2825 95.5945 41.5113 95.6655 40.5612H92.8295V39.5213ZM110.418 44.5596V34.8045H115.661V35.8639H111.6V38.662H115.661V39.7421H111.6V43.4795H115.661V44.5596H110.418ZM134.029 44.9399L130.94 37.9287L129.69 44.5596H128.536L130.552 34.4177L134.029 42.4872L137.505 34.4177L139.521 44.5596H138.366L137.104 37.9287L134.029 44.9399ZM152.782 44.5596V34.8045H158.025V35.8639H153.964V38.662H158.025V39.7421H153.964V43.4795H158.025V44.5596H152.782ZM171.762 44.5596V34.4177L179.035 42.2143V34.8045H180.162V44.9399L172.889 37.2289V44.5596H171.762ZM196.007 44.5596V35.9094H193.196V34.8045H200V35.9094H197.203V44.5596H196.007Z" fill="white"/>
</svg>
